Twelve.ufo
<glyph name="percent" format="1">
  <advance width="2580"/>
  <unicode hex="0025"/>
  <outline>
    <contour>
      <point x="542" y="1317" type="curve" smooth="yes"/>
      <point x="650" y="1317"/>
      <point x="710" y="1206"/>
      <point x="710" y="1018" type="curve" smooth="yes"/>
      <point x="710" y="834"/>
      <point x="655" y="729"/>
      <point x="542" y="729" type="curve" smooth="yes"/>
      <point x="429" y="729"/>
      <point x="374" y="834"/>
      <point x="374" y="1018" type="curve" smooth="yes"/>
      <point x="374" y="1206"/>
      <point x="433" y="1317"/>
    </contour>
    <contour>
      <point x="542" y="549" type="curve" smooth="yes"/>
      <point x="839" y="549"/>
      <point x="990" y="788"/>
      <point x="990" y="1026" type="curve" smooth="yes"/>
      <point x="990" y="1262"/>
      <point x="843" y="1497"/>
      <point x="542" y="1497" type="curve" smooth="yes"/>
      <point x="241" y="1497"/>
      <point x="93" y="1262"/>
      <point x="93" y="1026" type="curve" smooth="yes"/>
      <point x="93" y="788"/>
      <point x="245" y="549"/>
    </contour>
    <contour>
      <point x="763" y="-82" type="line"/>
      <point x="1083" y="-82" type="line"/>
      <point x="1799" y="1536" type="line"/>
      <point x="1480" y="1536" type="line"/>
    </contour>
    <contour>
      <point x="2039" y="721" type="curve" smooth="yes"/>
      <point x="2148" y="721"/>
      <point x="2207" y="610"/>
      <point x="2207" y="422" type="curve" smooth="yes"/>
      <point x="2207" y="238"/>
      <point x="2152" y="133"/>
      <point x="2039" y="133" type="curve" smooth="yes"/>
      <point x="1926" y="133"/>
      <point x="1871" y="238"/>
      <point x="1871" y="422" type="curve" smooth="yes"/>
      <point x="1871" y="610"/>
      <point x="1930" y="721"/>
    </contour>
    <contour>
      <point x="2039" y="-47" type="curve" smooth="yes"/>
      <point x="2336" y="-47"/>
      <point x="2488" y="193"/>
      <point x="2488" y="430" type="curve" smooth="yes"/>
      <point x="2488" y="666"/>
      <point x="2340" y="901"/>
      <point x="2039" y="901" type="curve" smooth="yes"/>
      <point x="1738" y="901"/>
      <point x="1590" y="666"/>
      <point x="1590" y="430" type="curve" smooth="yes"/>
      <point x="1590" y="193"/>
      <point x="1742" y="-47"/>
    </contour>
  </outline>
</glyph>
<glyph name="parenleft" format="1">
  <advance width="995"/>
  <unicode hex="0028"/>
  <outline>
    <contour>
      <point x="837" y="130" type="line"/>
      <point x="654" y="130"/>
      <point x="563" y="414"/>
      <point x="563" y="698" type="curve" smooth="yes"/>
      <point x="563" y="983"/>
      <point x="655" y="1269"/>
      <point x="837" y="1269" type="curve"/>
      <point x="837" y="1543" type="line"/>
      <point x="329" y="1543"/>
      <point x="73" y="1120"/>
      <point x="73" y="698" type="curve" smooth="yes"/>
      <point x="73" y="275"/>
      <point x="329" y="-146"/>
      <point x="837" y="-146" type="curve"/>
    </contour>
  </outline>
</glyph>
<glyph name="parenright" format="1">
  <advance width="997"/>
  <unicode hex="0029"/>
  <outline>
    <contour>
      <point x="160" y="-146" type="line"/>
      <point x="668" y="-146"/>
      <point x="924" y="275"/>
      <point x="924" y="698" type="curve" smooth="yes"/>
      <point x="924" y="1120"/>
      <point x="668" y="1543"/>
      <point x="160" y="1543" type="curve"/>
      <point x="160" y="1269" type="line"/>
      <point x="342" y="1269"/>
      <point x="434" y="983"/>
      <point x="434" y="698" type="curve" smooth="yes"/>
      <point x="434" y="414"/>
      <point x="343" y="130"/>
      <point x="160" y="130" type="curve"/>
    </contour>
  </outline>
</glyph>
<glyph name="plus" format="1">
  <advance width="1137"/>
  <unicode hex="002B"/>
  <outline>
    <contour>
      <point x="49" y="397" type="line"/>
      <point x="407" y="397" type="line"/>
      <point x="407" y="20" type="line"/>
      <point x="733" y="20" type="line"/>
      <point x="733" y="397" type="line"/>
      <point x="1087" y="397" type="line"/>
      <point x="1087" y="702" type="line"/>
      <point x="733" y="702" type="line"/>
      <point x="733" y="1079" type="line"/>
      <point x="407" y="1079" type="line"/>
      <point x="407" y="702" type="line"/>
      <point x="49" y="702" type="line"/>
    </contour>
  </outline>
</glyph>
<glyph name="comma" format="1">
  <advance width="653"/>
  <unicode hex="002C"/>
  <outline>
    <contour>
      <point x="160" y="-328" type="line"/>
      <point x="302" y="-328"/>
      <point x="541" y="-258"/>
      <point x="541" y="25" type="curve" smooth="yes"/>
      <point x="541" y="350" type="line"/>
      <point x="160" y="350" type="line"/>
      <point x="160" y="0" type="line"/>
      <point x="302" y="0" type="line"/>
      <point x="302" y="-45"/>
      <point x="296" y="-84"/>
      <point x="160" y="-129" type="curve"/>
    </contour>
  </outline>
</glyph>
<glyph name="period" format="1">
  <advance width="699"/>
  <unicode hex="002E"/>
  <outline>
    <contour>
      <point x="541" y="350" type="line"/>
      <point x="160" y="350" type="line"/>
      <point x="160" y="0" type="line"/>
      <point x="541" y="0" type="line"/>
    </contour>
  </outline>
</glyph>
<glyph name="slash" format="1">
  <advance width="1408"/>
  <unicode hex="002F"/>
  <outline>
    <contour>
      <point x="758" y="1647" type="line"/>
      <point x="1364" y="1647" type="line"/>
      <point x="651" y="-207" type="line"/>
      <point x="45" y="-205" type="line"/>
    </contour>
  </outline>
</glyph>
<glyph name="A" format="1">
  <advance width="2560"/>
  <unicode hex="0041"/>
  <outline>
    <contour>
      <point x="88" y="0" type="line"/>
      <point x="774" y="0" type="line"/>
      <point x="854" y="186" type="line"/>
      <point x="1528" y="186" type="line"/>
      <point x="1616" y="0" type="line"/>
      <point x="2470" y="0" type="line"/>
      <point x="1782" y="1438" type="line"/>
      <point x="788" y="1438" type="line"/>
    </contour>
    <contour>
      <point x="1206" y="1042" type="line"/>
      <point x="1391" y="553" type="line"/>
      <point x="1008" y="553" type="line"/>
    </contour>
  </outline>
</glyph>
<glyph name="B" format="1">
  <advance width="2398"/>
  <unicode hex="0042"/>
  <outline>
    <contour>
      <point x="158" y="0" type="line"/>
      <point x="1352" y="0" type="line" smooth="yes"/>
      <point x="1851" y="0"/>
      <point x="2275" y="96"/>
      <point x="2275" y="424" type="curve" smooth="yes"/>
      <point x="2275" y="602"/>
      <point x="2148" y="709"/>
      <point x="1976" y="770" type="curve"/>
      <point x="2095" y="831"/>
      <point x="2177" y="918"/>
      <point x="2177" y="1040" type="curve" smooth="yes"/>
      <point x="2177" y="1339"/>
      <point x="1825" y="1436"/>
      <point x="1397" y="1436" type="curve" smooth="yes"/>
      <point x="158" y="1436" type="line"/>
    </contour>
    <contour>
      <point x="905" y="643" type="line"/>
      <point x="1214" y="643" type="line" smooth="yes"/>
      <point x="1425" y="643"/>
      <point x="1511" y="631"/>
      <point x="1511" y="510" type="curve" smooth="yes"/>
      <point x="1511" y="375"/>
      <point x="1350" y="365"/>
      <point x="1163" y="365" type="curve" smooth="yes"/>
      <point x="905" y="365" type="line"/>
    </contour>
    <contour>
      <point x="905" y="1124" type="line"/>
      <point x="1151" y="1124" type="line" smooth="yes"/>
      <point x="1317" y="1124"/>
      <point x="1462" y="1124"/>
      <point x="1462" y="989" type="curve" smooth="yes"/>
      <point x="1462" y="889"/>
      <point x="1393" y="870"/>
      <point x="1231" y="866" type="curve"/>
      <point x="905" y="866" type="line"/>
    </contour>
  </outline>
</glyph>
<glyph name="C" format="1">
  <advance width="2478"/>
  <unicode hex="0043"/>
  <outline>
    <contour>
      <point x="117" y="719" type="curve" smooth="yes"/>
      <point x="117" y="106"/>
      <point x="735" y="-41"/>
      <point x="1335" y="-41" type="curve" smooth="yes"/>
      <point x="1782" y="-41"/>
      <point x="2363" y="59"/>
      <point x="2363" y="442" type="curve" smooth="yes"/>
      <point x="2363" y="469"/>
      <point x="2357" y="498"/>
      <point x="2351" y="528" type="curve"/>
      <point x="1729" y="580" type="line"/>
      <point x="1702" y="451"/>
      <point x="1622" y="365"/>
      <point x="1335" y="365" type="curve"/>
      <point x="1087" y="371"/>
      <point x="934" y="451"/>
      <point x="934" y="719" type="curve" smooth="yes"/>
      <point x="934" y="987"/>
      <point x="1087" y="1067"/>
      <point x="1335" y="1073" type="curve"/>
      <point x="1595" y="1073"/>
      <point x="1688" y="1008"/>
      <point x="1729" y="879" type="curve"/>
      <point x="2345" y="922" type="line"/>
      <point x="2347" y="932"/>
      <point x="2347" y="938"/>
      <point x="2347" y="946" type="curve" smooth="yes"/>
      <point x="2322" y="1358"/>
      <point x="1798" y="1475"/>
      <point x="1335" y="1475" type="curve" smooth="yes"/>
      <point x="735" y="1475"/>
      <point x="117" y="1331"/>
    </contour>
  </outline>
</glyph>
<glyph name="D" format="1">
  <advance width="2443"/>
  <unicode hex="0044"/>
  <outline>
    <contour>
      <point x="158" y="1436" type="line"/>
      <point x="158" y="0" type="line"/>
      <point x="1135" y="0" type="line" smooth="yes"/>
      <point x="1776" y="0"/>
      <point x="2316" y="-20"/>
      <point x="2316" y="733" type="curve" smooth="yes"/>
      <point x="2316" y="1262"/>
      <point x="1872" y="1436"/>
      <point x="1352" y="1436" type="curve" smooth="yes"/>
    </contour>
    <contour>
      <point x="905" y="1065" type="curve"/>
      <point x="940" y="1065"/>
      <point x="1104" y="1067"/>
      <point x="1184" y="1067" type="curve" smooth="yes"/>
      <point x="1380" y="1067"/>
      <point x="1579" y="1030"/>
      <point x="1579" y="729" type="curve" smooth="yes"/>
      <point x="1579" y="322"/>
      <point x="1313" y="379"/>
      <point x="905" y="379" type="curve"/>
      <point x="905" y="608"/>
      <point x="905" y="836"/>
    </contour>
  </outline>
</glyph>
<glyph name="E" format="1">
  <advance width="2384"/>
  <unicode hex="0045"/>
  <outline>
    <contour>
      <point x="158" y="0" type="line"/>
      <point x="2236" y="0" type="line"/>
      <point x="2236" y="377" type="line"/>
      <point x="948" y="377" type="line"/>
      <point x="948" y="578" type="line"/>
      <point x="1769" y="578" type="line"/>
      <point x="1769" y="881" type="line"/>
      <point x="948" y="881" type="line"/>
      <point x="948" y="1055" type="line"/>
      <point x="2159" y="1055" type="line"/>
      <point x="2159" y="1438" type="line"/>
      <point x="158" y="1438" type="line"/>
    </contour>
  </outline>
</glyph>
<glyph name="F" format="1">
  <advance width="2159"/>
  <unicode hex="0046"/>
  <outline>
    <contour>
      <point x="158" y="1438" type="line"/>
      <point x="158" y="0" type="line"/>
      <point x="948" y="0" type="line"/>
      <point x="948" y="512" type="line"/>
      <point x="1769" y="512" type="line"/>
      <point x="1769" y="815" type="line"/>
      <point x="948" y="815" type="line"/>
      <point x="948" y="1055" type="line"/>
      <point x="2111" y="1055" type="line"/>
      <point x="2111" y="1438" type="line"/>
    </contour>
  </outline>
</glyph>
<glyph name="G" format="1">
  <advance width="2482"/>
  <unicode hex="0047"/>
  <outline>
    <contour>
      <point x="115" y="719" type="curve" smooth="yes"/>
      <point x="115" y="160"/>
      <point x="657" y="-41"/>
      <point x="1233" y="-41" type="curve" smooth="yes"/>
      <point x="1413" y="-41"/>
      <point x="1882" y="-18"/>
      <point x="2040" y="309" type="curve"/>
      <point x="2175" y="0" type="line"/>
      <point x="2341" y="0" type="line"/>
      <point x="2341" y="780" type="line"/>
      <point x="1395" y="780" type="line"/>
      <point x="1395" y="547" type="line"/>
      <point x="1700" y="547" type="line"/>
      <point x="1659" y="408"/>
      <point x="1524" y="358"/>
      <point x="1317" y="358" type="curve" smooth="yes"/>
      <point x="1075" y="358"/>
      <point x="932" y="465"/>
      <point x="932" y="719" type="curve" smooth="yes"/>
      <point x="932" y="987"/>
      <point x="1085" y="1067"/>
      <point x="1333" y="1073" type="curve"/>
      <point x="1593" y="1073"/>
      <point x="1686" y="1014"/>
      <point x="1726" y="899" type="curve"/>
      <point x="2343" y="942" type="line"/>
      <point x="2345" y="954"/>
      <point x="2345" y="954"/>
      <point x="2345" y="967" type="curve" smooth="yes"/>
      <point x="2320" y="1362"/>
      <point x="1796" y="1475"/>
      <point x="1333" y="1475" type="curve" smooth="yes"/>
      <point x="733" y="1475"/>
      <point x="115" y="1331"/>
    </contour>
  </outline>
</glyph>
<glyph name="H" format="1">
  <advance width="2451"/>
  <unicode hex="0048"/>
  <outline>
    <contour>
      <point x="160" y="1438" type="line"/>
      <point x="160" y="0" type="line"/>
      <point x="887" y="0" type="line"/>
      <point x="887" y="555" type="line"/>
      <point x="1552" y="555" type="line"/>
      <point x="1552" y="0" type="line"/>
      <point x="2292" y="0" type="line"/>
      <point x="2292" y="1438" type="line"/>
      <point x="1554" y="1438" type="line"/>
      <point x="1554" y="920" type="line"/>
      <point x="881" y="920" type="line"/>
      <point x="881" y="1438" type="line"/>
    </contour>
  </outline>
</glyph>
<glyph name="I" format="1">
  <advance width="1079"/>
  <unicode hex="0049"/>
  <outline>
    <contour>
      <point x="922" y="1438" type="line"/>
      <point x="160" y="1438" type="line"/>
      <point x="160" y="0" type="line"/>
      <point x="922" y="0" type="line"/>
    </contour>
  </outline>
</glyph>
<glyph name="J" format="1">
  <advance width="1432"/>
  <unicode hex="004A"/>
  <outline>
    <contour>
      <point x="90" y="-164" type="curve" smooth="yes"/>
      <point x="90" y="233" type="line"/>
      <point x="313" y="233"/>
      <point x="453" y="315"/>
      <point x="453" y="598" type="curve" smooth="yes"/>
      <point x="453" y="1438" type="line"/>
      <point x="1311" y="1438" type="line"/>
      <point x="1311" y="598" type="line" smooth="yes"/>
      <point x="1311" y="-51"/>
      <point x="612" y="-164"/>
    </contour>
  </outline>
</glyph>
<glyph name="K" format="1">
  <advance width="2345"/>
  <unicode hex="004B"/>
  <outline>
    <contour>
      <point x="920" y="1438" type="line"/>
      <point x="158" y="1438" type="line"/>
      <point x="158" y="0" type="line"/>
      <point x="920" y="0" type="line"/>
    </contour>
    <contour>
      <point x="2134" y="1438" type="line"/>
      <point x="1405" y="1438" type="line"/>
      <point x="899" y="801" type="line"/>
      <point x="1595" y="801" type="line"/>
    </contour>
    <contour>
      <point x="1587" y="854" type="line"/>
      <point x="819" y="801" type="line"/>
      <point x="1374" y="0" type="line"/>
      <point x="2220" y="0" type="line"/>
    </contour>
  </outline>
</glyph>
<glyph name="L" format="1">
  <advance width="2091"/>
  <unicode hex="004C"/>
  <outline>
    <contour>
      <point x="158" y="0" type="line"/>
      <point x="2050" y="0" type="line"/>
      <point x="2050" y="383" type="line"/>
      <point x="948" y="383" type="line"/>
      <point x="948" y="1438" type="line"/>
      <point x="158" y="1438" type="line"/>
    </contour>
  </outline>
</glyph>
<glyph name="M" format="1">
  <advance width="2900"/>
  <unicode hex="004D"/>
  <outline>
    <contour>
      <point x="160" y="1438" type="line"/>
      <point x="160" y="0" type="line"/>
      <point x="823" y="0" type="line"/>
      <point x="823" y="745" type="line"/>
      <point x="1247" y="0" type="line"/>
      <point x="1653" y="0" type="line"/>
      <point x="2077" y="745" type="line"/>
      <point x="2077" y="0" type="line"/>
      <point x="2740" y="0" type="line"/>
      <point x="2740" y="1438" type="line"/>
      <point x="1866" y="1438" type="line"/>
      <point x="1450" y="690" type="line"/>
      <point x="1034" y="1438" type="line"/>
    </contour>
  </outline>
</glyph>
<glyph name="N" format="1">
  <advance width="2628"/>
  <unicode hex="004E"/>
  <outline>
    <contour>
      <point x="160" y="1454" type="line"/>
      <point x="160" y="0" type="line"/>
      <point x="823" y="0" type="line"/>
      <point x="823" y="725" type="line"/>
      <point x="1698" y="-18" type="line"/>
      <point x="2470" y="-18" type="line"/>
      <point x="2470" y="1436" type="line"/>
      <point x="1819" y="1436" type="line"/>
      <point x="1819" y="874" type="line"/>
      <point x="1157" y="1454" type="line"/>
    </contour>
  </outline>
</glyph>
<glyph name="O" format="1">
  <advance width="2720"/>
  <unicode hex="004F"/>
  <outline>
    <contour>
      <point x="1360" y="356" type="curve" smooth="yes"/>
      <point x="1124" y="356"/>
      <point x="977" y="438"/>
      <point x="977" y="721" type="curve" smooth="yes"/>
      <point x="977" y="1004"/>
      <point x="1124" y="1085"/>
      <point x="1360" y="1085" type="curve" smooth="yes"/>
      <point x="1595" y="1085"/>
      <point x="1743" y="1004"/>
      <point x="1743" y="721" type="curve" smooth="yes"/>
      <point x="1743" y="438"/>
      <point x="1595" y="356"/>
    </contour>
    <contour>
      <point x="1360" y="-41" type="curve" smooth="yes"/>
      <point x="1890" y="-41"/>
      <point x="2601" y="72"/>
      <point x="2601" y="721" type="curve" smooth="yes"/>
      <point x="2601" y="1323"/>
      <point x="1890" y="1475"/>
      <point x="1360" y="1475" type="curve" smooth="yes"/>
      <point x="829" y="1475"/>
      <point x="119" y="1323"/>
      <point x="119" y="721" type="curve" smooth="yes"/>
      <point x="119" y="72"/>
      <point x="829" y="-41"/>
    </contour>
  </outline>
</glyph>
<glyph name="P" format="1">
  <advance width="2359"/>
  <unicode hex="0050"/>
  <outline>
    <contour>
      <point x="158" y="1436" type="curve"/>
      <point x="158" y="0" type="line"/>
      <point x="903" y="0" type="line"/>
      <point x="903" y="453" type="line"/>
      <point x="1620" y="461"/>
      <point x="2302" y="381"/>
      <point x="2302" y="930" type="curve" smooth="yes"/>
      <point x="2302" y="1370"/>
      <point x="1958" y="1438"/>
      <point x="1411" y="1438" type="curve" smooth="yes"/>
      <point x="993" y="1438"/>
      <point x="575" y="1436"/>
    </contour>
    <contour>
      <point x="903" y="1057" type="line"/>
      <point x="1223" y="1057" type="line" smooth="yes"/>
      <point x="1335" y="1057"/>
      <point x="1536" y="1090"/>
      <point x="1536" y="911" type="curve" smooth="yes"/>
      <point x="1536" y="788"/>
      <point x="1438" y="762"/>
      <point x="1350" y="762" type="curve" smooth="yes"/>
      <point x="903" y="762" type="line"/>
    </contour>
  </outline>
</glyph>
<glyph name="Q" format="1">
  <advance width="2712"/>
  <unicode hex="0051"/>
  <outline>
    <contour>
      <point x="1356" y="356" type="curve" smooth="yes"/>
      <point x="1120" y="356"/>
      <point x="973" y="438"/>
      <point x="973" y="721" type="curve" smooth="yes"/>
      <point x="973" y="1004"/>
      <point x="1120" y="1085"/>
      <point x="1356" y="1085" type="curve" smooth="yes"/>
      <point x="1591" y="1085"/>
      <point x="1739" y="1004"/>
      <point x="1739" y="721" type="curve" smooth="yes"/>
      <point x="1739" y="438"/>
      <point x="1591" y="356"/>
    </contour>
    <contour>
      <point x="1356" y="-41" type="curve" smooth="yes"/>
      <point x="1886" y="-41"/>
      <point x="2597" y="72"/>
      <point x="2597" y="721" type="curve" smooth="yes"/>
      <point x="2597" y="1323"/>
      <point x="1886" y="1475"/>
      <point x="1356" y="1475" type="curve" smooth="yes"/>
      <point x="825" y="1475"/>
      <point x="115" y="1323"/>
      <point x="115" y="721" type="curve" smooth="yes"/>
      <point x="115" y="72"/>
      <point x="825" y="-41"/>
    </contour>
  </outline>
</glyph>
<glyph name="R" format="1">
  <advance width="2478"/>
  <unicode hex="0052"/>
  <outline>
    <contour>
      <point x="158" y="1436" type="line"/>
      <point x="158" y="0" type="line"/>
      <point x="903" y="0" type="line"/>
      <point x="903" y="494" type="line"/>
      <point x="903" y="494"/>
      <point x="1061" y="496"/>
      <point x="1118" y="496" type="curve" smooth="yes"/>
      <point x="1253" y="496"/>
      <point x="1368" y="496"/>
      <point x="1427" y="461" type="curve"/>
      <point x="1522" y="385"/>
      <point x="1513" y="8"/>
      <point x="1573" y="0" type="curve"/>
      <point x="2345" y="0" type="line"/>
      <point x="2306" y="59"/>
      <point x="2275" y="113"/>
      <point x="2265" y="184" type="curve" smooth="yes"/>
      <point x="2230" y="451"/>
      <point x="2144" y="627"/>
      <point x="1860" y="659" type="curve"/>
      <point x="2095" y="678"/>
      <point x="2302" y="786"/>
      <point x="2302" y="1012" type="curve" smooth="yes"/>
      <point x="2302" y="1434"/>
      <point x="1903" y="1438"/>
      <point x="1397" y="1438" type="curve" smooth="yes"/>
      <point x="1057" y="1438"/>
      <point x="719" y="1436"/>
      <point x="379" y="1436" type="curve" smooth="yes"/>
    </contour>
    <contour>
      <point x="903" y="1057" type="line"/>
      <point x="1276" y="1057" type="line" smooth="yes"/>
      <point x="1366" y="1057"/>
      <point x="1536" y="1061"/>
      <point x="1536" y="926" type="curve" smooth="yes"/>
      <point x="1536" y="856"/>
      <point x="1458" y="803"/>
      <point x="1391" y="803" type="curve" smooth="yes"/>
      <point x="903" y="803" type="line"/>
    </contour>
  </outline>
</glyph>
<glyph name="S" format="1">
  <advance width="2505"/>
  <unicode hex="0053"/>
  <outline>
    <contour>
      <point x="135" y="133" type="line"/>
      <point x="483" y="-6"/>
      <point x="862" y="-41"/>
      <point x="1227" y="-41" type="curve" smooth="yes"/>
      <point x="1399" y="-41"/>
      <point x="1550" y="-35"/>
      <point x="1679" y="-23" type="curve" smooth="yes"/>
      <point x="2195" y="27"/>
      <point x="2380" y="178"/>
      <point x="2380" y="459" type="curve" smooth="yes"/>
      <point x="2380" y="1130"/>
      <point x="952" y="858"/>
      <point x="952" y="1030" type="curve" smooth="yes"/>
      <point x="952" y="1096"/>
      <point x="1135" y="1092"/>
      <point x="1221" y="1092" type="curve" smooth="yes"/>
      <point x="1360" y="1092"/>
      <point x="1767" y="1077"/>
      <point x="2077" y="954" type="curve"/>
      <point x="2253" y="1300" type="line"/>
      <point x="1976" y="1423"/>
      <point x="1620" y="1475"/>
      <point x="1180" y="1475" type="curve" smooth="yes"/>
      <point x="678" y="1475"/>
      <point x="160" y="1430"/>
      <point x="160" y="979" type="curve" smooth="yes"/>
      <point x="160" y="496"/>
      <point x="836" y="514"/>
      <point x="1413" y="477" type="curve" smooth="yes"/>
      <point x="1468" y="473"/>
      <point x="1552" y="471"/>
      <point x="1552" y="410" type="curve" smooth="yes"/>
      <point x="1552" y="358"/>
      <point x="1460" y="348"/>
      <point x="1370" y="348" type="curve" smooth="yes"/>
      <point x="975" y="348"/>
      <point x="659" y="381"/>
      <point x="307" y="498" type="curve"/>
    </contour>
  </outline>
</glyph>
<glyph name="T" format="1">
  <advance width="2142"/>
  <unicode hex="0054"/>
  <outline>
    <contour>
      <point x="82" y="1438" type="line"/>
      <point x="82" y="1073" type="line"/>
      <point x="709" y="1073" type="line"/>
      <point x="709" y="0" type="line"/>
      <point x="1436" y="0" type="line"/>
      <point x="1436" y="1073" type="line"/>
      <point x="2060" y="1073" type="line"/>
      <point x="2060" y="1438" type="line"/>
    </contour>
  </outline>
</glyph>
<glyph name="U" format="1">
  <advance width="2677"/>
  <unicode hex="0055"/>
  <outline>
    <contour>
      <point x="1358" y="-41" type="curve" smooth="yes"/>
      <point x="1864" y="-41"/>
      <point x="2537" y="72"/>
      <point x="2537" y="721" type="curve" smooth="yes"/>
      <point x="2537" y="1438" type="line"/>
      <point x="1720" y="1438" type="line"/>
      <point x="1720" y="721" type="line" smooth="yes"/>
      <point x="1720" y="438"/>
      <point x="1581" y="356"/>
      <point x="1358" y="356" type="curve" smooth="yes"/>
      <point x="1135" y="356"/>
      <point x="995" y="438"/>
      <point x="995" y="721" type="curve" smooth="yes"/>
      <point x="995" y="1438" type="line"/>
      <point x="137" y="1438" type="line"/>
      <point x="137" y="721" type="line"/>
      <point x="137" y="72"/>
      <point x="836" y="-41"/>
    </contour>
  </outline>
</glyph>
<glyph name="V" format="1">
  <advance width="2486"/>
  <unicode hex="0056"/>
  <outline>
    <contour>
      <point x="838" y="1438" type="line"/>
      <point x="76" y="1438" type="line"/>
      <point x="870" y="0" type="line"/>
      <point x="1612" y="0" type="line"/>
    </contour>
    <contour>
      <point x="950" y="0" type="line"/>
      <point x="1630" y="0" type="line"/>
      <point x="2408" y="1438" type="line"/>
      <point x="1729" y="1438" type="line"/>
    </contour>
  </outline>
</glyph>
<glyph name="W" format="1">
  <advance width="3414"/>
  <unicode hex="0057"/>
  <outline>
    <contour>
      <point x="872" y="1438" type="line"/>
      <point x="111" y="1438" type="line"/>
      <point x="725" y="0" type="line"/>
      <point x="1425" y="0" type="line"/>
    </contour>
    <contour>
      <point x="805" y="0" type="line"/>
      <point x="1423" y="0" type="line"/>
      <point x="2058" y="1438" type="line"/>
      <point x="1440" y="1438" type="line"/>
    </contour>
    <contour>
      <point x="2056" y="1438" type="line"/>
      <point x="1552" y="1438" type="line"/>
      <point x="1552" y="1008" type="line"/>
      <point x="1950" y="0" type="line"/>
      <point x="2650" y="0" type="line"/>
    </contour>
    <contour>
      <point x="2030" y="0" type="line"/>
      <point x="2689" y="0" type="line"/>
      <point x="3303" y="1438" type="line"/>
      <point x="2644" y="1438" type="line"/>
    </contour>
  </outline>
</glyph>
<glyph name="X" format="1">
  <advance width="2597"/>
  <unicode hex="0058"/>
  <outline>
    <contour>
      <point x="1100" y="1438" type="line"/>
      <point x="133" y="1438" type="line"/>
      <point x="1546" y="0" type="line"/>
      <point x="2472" y="0" type="line"/>
    </contour>
    <contour>
      <point x="133" y="0" type="line"/>
      <point x="772" y="0" type="line"/>
      <point x="2390" y="1438" type="line"/>
      <point x="1747" y="1438" type="line"/>
    </contour>
  </outline>
</glyph>
<glyph name="Y" format="1">
  <advance width="2392"/>
  <unicode hex="0059"/>
  <outline>
    <contour>
      <point x="862" y="1438" type="line"/>
      <point x="70" y="1438" type="line"/>
      <point x="823" y="430" type="line"/>
      <point x="1559" y="471" type="line"/>
    </contour>
    <contour>
      <point x="926" y="418" type="line"/>
      <point x="1583" y="430" type="line"/>
      <point x="2320" y="1438" type="line"/>
      <point x="1640" y="1438" type="line"/>
    </contour>
    <contour>
      <point x="1585" y="666" type="line"/>
      <point x="823" y="666" type="line"/>
      <point x="823" y="0" type="line"/>
      <point x="1585" y="0" type="line"/>
    </contour>
  </outline>
</glyph>
<glyph name="Z" format="1">
  <advance width="2159"/>
  <unicode hex="005A"/>
  <outline>
    <contour>
      <point x="154" y="344" type="line"/>
      <point x="154" y="0" type="line"/>
      <point x="2007" y="0" type="line"/>
      <point x="2007" y="383" type="line"/>
      <point x="1120" y="383" type="line"/>
      <point x="1964" y="1108" type="line"/>
      <point x="1964" y="1438" type="line"/>
      <point x="188" y="1438" type="line"/>
      <point x="188" y="1057" type="line"/>
      <point x="965" y="1057" type="line"/>
    </contour>
  </outline>
</glyph>
<glyph name="bracketleft" format="1">
  <advance width="1598"/>
  <unicode hex="005B"/>
  <outline>
    <contour>
      <point x="160" y="-205" type="line"/>
      <point x="1438" y="-205" type="line"/>
      <point x="1438" y="178" type="line"/>
      <point x="950" y="178" type="line"/>
      <point x="950" y="1264" type="line"/>
      <point x="1438" y="1264" type="line"/>
      <point x="1438" y="1647" type="line"/>
      <point x="160" y="1647" type="line"/>
    </contour>
  </outline>
</glyph>
<glyph name="backslash" format="1">
  <advance width="1408"/>
  <unicode hex="005C"/>
  <outline>
    <contour>
      <point x="1363" y="-205" type="line"/>
      <point x="757" y="-207" type="line"/>
      <point x="44" y="1647" type="line"/>
      <point x="650" y="1647" type="line"/>
    </contour>
  </outline>
</glyph>
<glyph name="bracketright" format="1">
  <advance width="1598"/>
  <unicode hex="005D"/>
  <outline>
    <contour>
      <point x="1438" y="1647" type="line"/>
      <point x="160" y="1647" type="line"/>
      <point x="160" y="1264" type="line"/>
      <point x="647" y="1264" type="line"/>
      <point x="647" y="178" type="line"/>
      <point x="160" y="178" type="line"/>
      <point x="160" y="-205" type="line"/>
      <point x="1438" y="-205" type="line"/>
    </contour>
  </outline>
</glyph>
<glyph name="grave" format="1">
  <advance width="725"/>
  <unicode hex="0060"/>
  <outline>
    <contour>
      <point x="659" y="1217" type="line"/>
      <point x="383" y="1450" type="line"/>
      <point x="22" y="1450" type="line"/>
      <point x="473" y="1217" type="line"/>
    </contour>
  </outline>
</glyph>
<glyph name="a" format="1">
  <advance width="2019"/>
  <unicode hex="0061"/>
  <outline>
    <contour>
      <point x="123" y="213" type="curve" smooth="yes"/>
      <point x="123" y="37"/>
      <point x="379" y="-41"/>
      <point x="670" y="-41" type="curve" smooth="yes"/>
      <point x="999" y="-41"/>
      <point x="1374" y="59"/>
      <point x="1462" y="231" type="curve"/>
      <point x="1487" y="193"/>
      <point x="1513" y="154"/>
      <point x="1538" y="115" type="curve" smooth="yes"/>
      <point x="1563" y="76"/>
      <point x="1587" y="39"/>
      <point x="1614" y="0" type="curve"/>
      <point x="1878" y="0" type="line"/>
      <point x="1878" y="43"/>
      <point x="1878" y="84"/>
      <point x="1878" y="127" type="curve" smooth="yes"/>
      <point x="1878" y="170"/>
      <point x="1878" y="209"/>
      <point x="1878" y="252" type="curve" smooth="yes"/>
      <point x="1878" y="631" type="line" smooth="yes"/>
      <point x="1878" y="721"/>
      <point x="1849" y="791"/>
      <point x="1798" y="848" type="curve" smooth="yes"/>
      <point x="1645" y="1018"/>
      <point x="1296" y="1053"/>
      <point x="971" y="1053" type="curve" smooth="yes"/>
      <point x="485" y="1053"/>
      <point x="238" y="989"/>
      <point x="178" y="846" type="curve" smooth="yes"/>
      <point x="168" y="821"/>
      <point x="164" y="797"/>
      <point x="164" y="768" type="curve"/>
      <point x="678" y="723" type="line"/>
      <point x="688" y="741"/>
      <point x="709" y="756"/>
      <point x="737" y="770" type="curve" smooth="yes"/>
      <point x="795" y="797"/>
      <point x="881" y="815"/>
      <point x="965" y="815" type="curve" smooth="yes"/>
      <point x="1102" y="815"/>
      <point x="1237" y="768"/>
      <point x="1237" y="639" type="curve" smooth="yes"/>
      <point x="1237" y="594"/>
      <point x="123" y="621"/>
    </contour>
    <contour>
      <point x="737" y="262" type="curve" smooth="yes"/>
      <point x="737" y="395"/>
      <point x="1235" y="422"/>
      <point x="1235" y="422" type="curve"/>
      <point x="1235" y="272"/>
      <point x="1032" y="190"/>
      <point x="881" y="190" type="curve" smooth="yes"/>
      <point x="801" y="190"/>
      <point x="737" y="215"/>
    </contour>
  </outline>
</glyph>
<glyph name="b" format="1">
  <advance width="2025"/>
  <unicode hex="0062"/>
  <outline>
    <contour>
      <point x="1331" y="514" type="curve" smooth="yes"/>
      <point x="1331" y="383"/>
      <point x="1237" y="250"/>
      <point x="1049" y="250" type="curve" smooth="yes"/>
      <point x="854" y="250"/>
      <point x="758" y="381"/>
      <point x="758" y="514" type="curve" smooth="yes"/>
      <point x="758" y="643"/>
      <point x="854" y="776"/>
      <point x="1051" y="776" type="curve" smooth="yes"/>
      <point x="1237" y="776"/>
      <point x="1331" y="645"/>
    </contour>
    <contour>
      <point x="1964" y="498" type="curve" smooth="yes"/>
      <point x="1964" y="885"/>
      <point x="1595" y="1053"/>
      <point x="1251" y="1053" type="curve" smooth="yes"/>
      <point x="1057" y="1053"/>
      <point x="868" y="999"/>
      <point x="758" y="903" type="curve"/>
      <point x="758" y="1423" type="line"/>
      <point x="156" y="1423" type="line"/>
      <point x="156" y="0" type="line"/>
      <point x="379" y="0" type="line"/>
      <point x="520" y="207"/>
      <point x="528" y="229"/>
      <point x="528" y="229" type="curve"/>
      <point x="659" y="51"/>
      <point x="936" y="-41"/>
      <point x="1210" y="-41" type="curve" smooth="yes"/>
      <point x="1587" y="-41"/>
      <point x="1964" y="133"/>
    </contour>
  </outline>
</glyph>
<glyph name="c" format="1">
  <advance width="1821"/>
  <unicode hex="0063"/>
  <outline>
    <contour>
      <point x="111" y="510" type="curve" smooth="yes"/>
      <point x="111" y="94"/>
      <point x="557" y="-41"/>
      <point x="1010" y="-41" type="curve" smooth="yes"/>
      <point x="1264" y="-41"/>
      <point x="1522" y="6"/>
      <point x="1694" y="70" type="curve"/>
      <point x="1663" y="158"/>
      <point x="1632" y="248"/>
      <point x="1602" y="336" type="curve"/>
      <point x="1493" y="297"/>
      <point x="1298" y="252"/>
      <point x="1122" y="252" type="curve" smooth="yes"/>
      <point x="1071" y="252"/>
      <point x="1022" y="256"/>
      <point x="977" y="264" type="curve" smooth="yes"/>
      <point x="842" y="291"/>
      <point x="741" y="360"/>
      <point x="741" y="510" type="curve" smooth="yes"/>
      <point x="741" y="633"/>
      <point x="813" y="700"/>
      <point x="915" y="733" type="curve" smooth="yes"/>
      <point x="967" y="750"/>
      <point x="1026" y="756"/>
      <point x="1090" y="756" type="curve" smooth="yes"/>
      <point x="1268" y="756"/>
      <point x="1470" y="700"/>
      <point x="1587" y="655" type="curve"/>
      <point x="1620" y="743"/>
      <point x="1653" y="831"/>
      <point x="1686" y="920" type="curve"/>
      <point x="1526" y="999"/>
      <point x="1264" y="1053"/>
      <point x="997" y="1053" type="curve" smooth="yes"/>
      <point x="559" y="1053"/>
      <point x="111" y="909"/>
    </contour>
  </outline>
</glyph>
<glyph name="d" format="1">
  <advance width="2025"/>
  <unicode hex="0064"/>
  <outline>
    <contour>
      <point x="694" y="514" type="curve" smooth="yes"/>
      <point x="694" y="645"/>
      <point x="788" y="776"/>
      <point x="975" y="776" type="curve" smooth="yes"/>
      <point x="1171" y="776"/>
      <point x="1268" y="643"/>
      <point x="1268" y="514" type="curve" smooth="yes"/>
      <point x="1268" y="381"/>
      <point x="1171" y="250"/>
      <point x="977" y="250" type="curve" smooth="yes"/>
      <point x="788" y="250"/>
      <point x="694" y="383"/>
    </contour>
    <contour>
      <point x="61" y="498" type="curve" smooth="yes"/>
      <point x="61" y="133"/>
      <point x="438" y="-41"/>
      <point x="815" y="-41" type="curve" smooth="yes"/>
      <point x="1090" y="-41"/>
      <point x="1366" y="51"/>
      <point x="1497" y="229" type="curve"/>
      <point x="1647" y="0" type="line"/>
      <point x="1870" y="0" type="line"/>
      <point x="1870" y="1423" type="line"/>
      <point x="1268" y="1423" type="line"/>
      <point x="1268" y="903" type="line"/>
      <point x="1157" y="999"/>
      <point x="969" y="1053"/>
      <point x="774" y="1053" type="curve" smooth="yes"/>
      <point x="430" y="1053"/>
      <point x="61" y="885"/>
    </contour>
  </outline>
</glyph>
<glyph name="e" format="1">
  <advance width="1923"/>
  <unicode hex="0065"/>
  <outline>
    <contour>
      <point x="119" y="504" type="curve" smooth="yes"/>
      <point x="119" y="37"/>
      <point x="582" y="-41"/>
      <point x="1006" y="-41" type="curve" smooth="yes"/>
      <point x="1556" y="-41"/>
      <point x="1792" y="53"/>
      <point x="1792" y="295" type="curve"/>
      <point x="1272" y="338" type="line"/>
      <point x="1235" y="244"/>
      <point x="1145" y="244"/>
      <point x="1040" y="244" type="curve" smooth="yes"/>
      <point x="862" y="244"/>
      <point x="750" y="283"/>
      <point x="750" y="451" type="curve"/>
      <point x="1800" y="451" type="line"/>
      <point x="1804" y="479"/>
      <point x="1806" y="494"/>
      <point x="1806" y="520" type="curve" smooth="yes"/>
      <point x="1806" y="936"/>
      <point x="1352" y="1053"/>
      <point x="997" y="1053" type="curve" smooth="yes"/>
      <point x="602" y="1053"/>
      <point x="119" y="961"/>
    </contour>
    <contour>
      <point x="750" y="618" type="line"/>
      <point x="752" y="758"/>
      <point x="905" y="801"/>
      <point x="1008" y="801" type="curve" smooth="yes"/>
      <point x="1098" y="801"/>
      <point x="1204" y="774"/>
      <point x="1243" y="692" type="curve" smooth="yes"/>
      <point x="1253" y="672"/>
      <point x="1260" y="647"/>
      <point x="1260" y="618" type="curve"/>
    </contour>
  </outline>
</glyph>
<glyph name="f" format="1">
  <advance width="1538"/>
  <unicode hex="0066"/>
  <outline>
    <contour>
      <point x="1458" y="1116" type="curve"/>
      <point x="1458" y="1425" type="line"/>
      <point x="1425" y="1434"/>
      <point x="1391" y="1442"/>
      <point x="1354" y="1448" type="curve" smooth="yes"/>
      <point x="1245" y="1466"/>
      <point x="1128" y="1475"/>
      <point x="1014" y="1475" type="curve" smooth="yes"/>
      <point x="657" y="1475"/>
      <point x="315" y="1356"/>
      <point x="315" y="1008" type="curve" smooth="yes"/>
      <point x="315" y="1008"/>
      <point x="315" y="1006"/>
      <point x="315" y="1006" type="curve"/>
      <point x="76" y="1006" type="line"/>
      <point x="76" y="788" type="line"/>
      <point x="315" y="788" type="line"/>
      <point x="315" y="0" type="line"/>
      <point x="950" y="0" type="line"/>
      <point x="950" y="788" type="line"/>
      <point x="1434" y="788" type="line"/>
      <point x="1434" y="1006" type="line"/>
      <point x="950" y="1006" type="line"/>
      <point x="950" y="1010"/>
      <point x="950" y="1016"/>
      <point x="950" y="1020" type="curve" smooth="yes"/>
      <point x="950" y="1055"/>
      <point x="963" y="1081"/>
      <point x="985" y="1102" type="curve" smooth="yes"/>
      <point x="1028" y="1143"/>
      <point x="1106" y="1155"/>
      <point x="1190" y="1155" type="curve" smooth="yes"/>
      <point x="1290" y="1155"/>
      <point x="1399" y="1135"/>
    </contour>
  </outline>
</glyph>
<glyph name="g" format="1">
  <advance width="1745"/>
  <unicode hex="0067"/>
  <outline>
    <contour>
      <point x="850" y="322" type="curve" smooth="yes"/>
      <point x="1360" y="322"/>
      <point x="1518" y="518"/>
      <point x="1518" y="731" type="curve" smooth="yes"/>
      <point x="1518" y="870"/>
      <point x="1391" y="983"/>
      <point x="1219" y="1047" type="curve"/>
      <point x="1460" y="1434" type="line"/>
      <point x="1069" y="1434" type="line"/>
      <point x="1004" y="1096" type="line"/>
      <point x="944" y="1100"/>
      <point x="885" y="1114"/>
      <point x="809" y="1114" type="curve" smooth="yes"/>
      <point x="285" y="1114"/>
      <point x="94" y="934"/>
      <point x="94" y="731" type="curve" smooth="yes"/>
      <point x="94" y="621"/>
      <point x="172" y="504"/>
      <point x="281" y="426" type="curve"/>
      <point x="178" y="377"/>
      <point x="98" y="268"/>
      <point x="98" y="152" type="curve" smooth="yes"/>
      <point x="98" y="45"/>
      <point x="197" y="-72"/>
      <point x="336" y="-123" type="curve"/>
      <point x="182" y="-203"/>
      <point x="115" y="-326"/>
      <point x="115" y="-406" type="curve" smooth="yes"/>
      <point x="115" y="-557"/>
      <point x="342" y="-662"/>
      <point x="829" y="-662" type="curve" smooth="yes"/>
      <point x="1501" y="-662"/>
      <point x="1638" y="-494"/>
      <point x="1638" y="-238" type="curve" smooth="yes"/>
      <point x="1638" y="-23"/>
      <point x="1507" y="207"/>
      <point x="1049" y="207" type="curve" smooth="yes"/>
      <point x="764" y="207" type="line" smooth="yes"/>
      <point x="569" y="207"/>
      <point x="461" y="215"/>
      <point x="461" y="279" type="curve" smooth="yes"/>
      <point x="461" y="315"/>
      <point x="496" y="358"/>
      <point x="496" y="358" type="curve"/>
      <point x="582" y="336"/>
      <point x="707" y="322"/>
    </contour>
    <contour>
      <point x="809" y="582" type="curve" smooth="yes"/>
      <point x="659" y="582"/>
      <point x="582" y="649"/>
      <point x="582" y="735" type="curve" smooth="yes"/>
      <point x="582" y="813"/>
      <point x="655" y="881"/>
      <point x="809" y="881" type="curve" smooth="yes"/>
      <point x="956" y="881"/>
      <point x="1038" y="807"/>
      <point x="1038" y="723" type="curve" smooth="yes"/>
      <point x="1038" y="645"/>
      <point x="963" y="582"/>
    </contour>
    <contour>
      <point x="1083" y="-193" type="line" smooth="yes"/>
      <point x="1182" y="-193"/>
      <point x="1239" y="-240"/>
      <point x="1239" y="-283" type="curve" smooth="yes"/>
      <point x="1239" y="-332"/>
      <point x="1229" y="-381"/>
      <point x="809" y="-381" type="curve" smooth="yes"/>
      <point x="618" y="-381"/>
      <point x="520" y="-346"/>
      <point x="520" y="-301" type="curve" smooth="yes"/>
      <point x="520" y="-268"/>
      <point x="553" y="-225"/>
      <point x="608" y="-193" type="curve"/>
    </contour>
  </outline>
</glyph>
<glyph name="h" format="1">
  <advance width="2034"/>
  <unicode hex="0068"/>
  <outline>
    <contour>
      <point x="158" y="1436" type="line"/>
      <point x="158" y="0" type="line"/>
      <point x="764" y="0" type="line"/>
      <point x="764" y="496" type="line"/>
      <point x="764" y="629"/>
      <point x="860" y="760"/>
      <point x="1057" y="760" type="curve" smooth="yes"/>
      <point x="1243" y="760"/>
      <point x="1339" y="627"/>
      <point x="1339" y="496" type="curve" smooth="yes"/>
      <point x="1339" y="0" type="line"/>
      <point x="1962" y="0" type="line"/>
      <point x="1962" y="512" type="line"/>
      <point x="1962" y="864"/>
      <point x="1624" y="1053"/>
      <point x="1270" y="1053" type="curve" smooth="yes"/>
      <point x="1085" y="1053"/>
      <point x="901" y="1001"/>
      <point x="764" y="897" type="curve"/>
      <point x="764" y="1436" type="line"/>
    </contour>
  </outline>
</glyph>
<glyph name="i" format="1">
  <advance width="946"/>
  <unicode hex="0069"/>
  <outline>
    <contour>
      <point x="170" y="1006" type="line"/>
      <point x="170" y="0" type="line"/>
      <point x="776" y="0" type="line"/>
      <point x="776" y="1006" type="line"/>
    </contour>
    <contour>
      <point x="817" y="1343" type="curve" smooth="yes"/>
      <point x="817" y="1440"/>
      <point x="702" y="1536"/>
      <point x="473" y="1536" type="curve" smooth="yes"/>
      <point x="358" y="1536"/>
      <point x="272" y="1513"/>
      <point x="215" y="1477" type="curve" smooth="yes"/>
      <point x="158" y="1440"/>
      <point x="129" y="1391"/>
      <point x="129" y="1343" type="curve" smooth="yes"/>
      <point x="129" y="1247"/>
      <point x="246" y="1151"/>
      <point x="473" y="1151" type="curve" smooth="yes"/>
      <point x="586" y="1151"/>
      <point x="674" y="1174"/>
      <point x="731" y="1210" type="curve" smooth="yes"/>
      <point x="788" y="1247"/>
      <point x="817" y="1294"/>
    </contour>
  </outline>
</glyph>
<glyph name="j" format="1">
  <advance width="1260"/>
  <unicode hex="006A"/>
  <outline>
    <contour>
      <point x="258" y="-135" type="curve" smooth="yes"/>
      <point x="180" y="-135"/>
      <point x="104" y="-123"/>
      <point x="66" y="-117" type="curve"/>
      <point x="66" y="-217"/>
      <point x="66" y="-324"/>
      <point x="66" y="-426" type="curve"/>
      <point x="156" y="-440"/>
      <point x="270" y="-455"/>
      <point x="393" y="-455" type="curve" smooth="yes"/>
      <point x="434" y="-455"/>
      <point x="477" y="-455"/>
      <point x="518" y="-451" type="curve" smooth="yes"/>
      <point x="768" y="-430"/>
      <point x="1012" y="-344"/>
      <point x="1077" y="-115" type="curve" smooth="yes"/>
      <point x="1087" y="-76"/>
      <point x="1094" y="-35"/>
      <point x="1094" y="12" type="curve" smooth="yes"/>
      <point x="1094" y="1006" type="line"/>
      <point x="487" y="1006" type="line"/>
      <point x="487" y="0" type="line"/>
      <point x="487" y="0"/>
      <point x="487" y="0"/>
      <point x="487" y="0" type="curve"/>
      <point x="487" y="-37"/>
      <point x="473" y="-63"/>
      <point x="453" y="-84" type="curve" smooth="yes"/>
      <point x="432" y="-104"/>
      <point x="401" y="-117"/>
      <point x="367" y="-125" type="curve" smooth="yes"/>
      <point x="332" y="-133"/>
      <point x="295" y="-135"/>
    </contour>
    <contour>
      <point x="1135" y="1343" type="curve" smooth="yes"/>
      <point x="1135" y="1440"/>
      <point x="1020" y="1536"/>
      <point x="791" y="1536" type="curve" smooth="yes"/>
      <point x="676" y="1536"/>
      <point x="590" y="1513"/>
      <point x="532" y="1477" type="curve" smooth="yes"/>
      <point x="475" y="1440"/>
      <point x="446" y="1391"/>
      <point x="446" y="1343" type="curve" smooth="yes"/>
      <point x="446" y="1247"/>
      <point x="563" y="1151"/>
      <point x="791" y="1151" type="curve" smooth="yes"/>
      <point x="903" y="1151"/>
      <point x="991" y="1174"/>
      <point x="1049" y="1210" type="curve" smooth="yes"/>
      <point x="1106" y="1247"/>
      <point x="1135" y="1294"/>
    </contour>
  </outline>
</glyph>
<glyph name="k" format="1">
  <advance width="2007"/>
  <unicode hex="006B"/>
  <outline>
    <contour>
      <point x="766" y="0" type="line"/>
      <point x="766" y="244" type="line"/>
      <point x="930" y="385" type="line"/>
      <point x="1280" y="0" type="line"/>
      <point x="1972" y="0" type="line"/>
      <point x="1376" y="600" type="line"/>
      <point x="1931" y="1006" type="line"/>
      <point x="1147" y="1006" type="line"/>
      <point x="766" y="721" type="line"/>
      <point x="766" y="1475" type="line"/>
      <point x="160" y="1475" type="line"/>
      <point x="160" y="0" type="line"/>
    </contour>
  </outline>
</glyph>
<glyph name="l" format="1">
  <advance width="920"/>
  <unicode hex="006C"/>
  <outline>
    <contour>
      <point x="764" y="0" type="line"/>
      <point x="764" y="1475" type="line"/>
      <point x="158" y="1475" type="line"/>
      <point x="158" y="0" type="line"/>
    </contour>
  </outline>
</glyph>
<glyph name="m" format="1">
  <advance width="3041"/>
  <unicode hex="006D"/>
  <outline>
    <contour>
      <point x="156" y="1006" type="line"/>
      <point x="156" y="0" type="line"/>
      <point x="762" y="0" type="line"/>
      <point x="762" y="166" type="line" smooth="yes"/>
      <point x="762" y="381"/>
      <point x="700" y="760"/>
      <point x="993" y="760" type="curve" smooth="yes"/>
      <point x="1137" y="760"/>
      <point x="1214" y="627"/>
      <point x="1214" y="496" type="curve" smooth="yes"/>
      <point x="1214" y="0" type="line"/>
      <point x="1823" y="0" type="line"/>
      <point x="1823" y="256" type="line" smooth="yes"/>
      <point x="1823" y="348"/>
      <point x="1821" y="436"/>
      <point x="1821" y="528" type="curve"/>
      <point x="1833" y="649"/>
      <point x="1911" y="760"/>
      <point x="2052" y="760" type="curve" smooth="yes"/>
      <point x="2195" y="760"/>
      <point x="2273" y="627"/>
      <point x="2273" y="496" type="curve" smooth="yes"/>
      <point x="2273" y="0" type="line"/>
      <point x="2896" y="0" type="line"/>
      <point x="2896" y="512" type="line" smooth="yes"/>
      <point x="2896" y="573"/>
      <point x="2886" y="629"/>
      <point x="2869" y="680" type="curve" smooth="yes"/>
      <point x="2783" y="932"/>
      <point x="2503" y="1053"/>
      <point x="2212" y="1053" type="curve" smooth="yes"/>
      <point x="2011" y="1053"/>
      <point x="1812" y="985"/>
      <point x="1688" y="856" type="curve"/>
      <point x="1561" y="987"/>
      <point x="1356" y="1053"/>
      <point x="1143" y="1053" type="curve" smooth="yes"/>
      <point x="907" y="1053"/>
      <point x="682" y="961"/>
      <point x="571" y="780" type="curve"/>
      <point x="420" y="1006" type="line"/>
    </contour>
  </outline>
</glyph>
<glyph name="n" format="1">
  <advance width="2109"/>
  <unicode hex="006E"/>
  <outline>
    <contour>
      <point x="156" y="1006" type="line"/>
      <point x="156" y="0" type="line"/>
      <point x="762" y="0" type="line"/>
      <point x="762" y="496" type="line"/>
      <point x="762" y="629"/>
      <point x="858" y="760"/>
      <point x="1055" y="760" type="curve" smooth="yes"/>
      <point x="1241" y="760"/>
      <point x="1350" y="627"/>
      <point x="1350" y="496" type="curve" smooth="yes"/>
      <point x="1350" y="0" type="line"/>
      <point x="1972" y="0" type="line"/>
      <point x="1972" y="512" type="line"/>
      <point x="1972" y="879"/>
      <point x="1595" y="1053"/>
      <point x="1214" y="1053" type="curve" smooth="yes"/>
      <point x="954" y="1053"/>
      <point x="694" y="961"/>
      <point x="571" y="780" type="curve"/>
      <point x="420" y="1006" type="line"/>
    </contour>
  </outline>
</glyph>
<glyph name="o" format="1">
  <advance width="2040"/>
  <unicode hex="006F"/>
  <outline>
    <contour>
      <point x="1020" y="233" type="curve" smooth="yes"/>
      <point x="829" y="233"/>
      <point x="723" y="319"/>
      <point x="723" y="508" type="curve" smooth="yes"/>
      <point x="723" y="662"/>
      <point x="823" y="780"/>
      <point x="1020" y="780" type="curve" smooth="yes"/>
      <point x="1217" y="780"/>
      <point x="1317" y="662"/>
      <point x="1317" y="508" type="curve" smooth="yes"/>
      <point x="1317" y="319"/>
      <point x="1210" y="233"/>
    </contour>
    <contour>
      <point x="1020" y="-41" type="curve" smooth="yes"/>
      <point x="1405" y="-41"/>
      <point x="1919" y="0"/>
      <point x="1919" y="508" type="curve" smooth="yes"/>
      <point x="1919" y="1006"/>
      <point x="1370" y="1053"/>
      <point x="1020" y="1053" type="curve" smooth="yes"/>
      <point x="670" y="1053"/>
      <point x="121" y="1006"/>
      <point x="121" y="508" type="curve" smooth="yes"/>
      <point x="121" y="0"/>
      <point x="635" y="-41"/>
    </contour>
  </outline>
</glyph>
<glyph name="p" format="1">
  <advance width="2058"/>
  <unicode hex="0070"/>
  <outline>
    <contour>
      <point x="1982" y="512" type="curve" smooth="yes"/>
      <point x="1982" y="879"/>
      <point x="1606" y="1053"/>
      <point x="1225" y="1053" type="curve" smooth="yes"/>
      <point x="965" y="1053"/>
      <point x="705" y="961"/>
      <point x="582" y="780" type="curve"/>
      <point x="430" y="997" type="line"/>
      <point x="166" y="997" type="line"/>
      <point x="166" y="-299" type="line"/>
      <point x="772" y="-299" type="line"/>
      <point x="772" y="84" type="line"/>
      <point x="883" y="0"/>
      <point x="1073" y="-41"/>
      <point x="1268" y="-41" type="curve" smooth="yes"/>
      <point x="1614" y="-41"/>
      <point x="1982" y="123"/>
    </contour>
    <contour>
      <point x="1348" y="496" type="curve" smooth="yes"/>
      <point x="1348" y="362"/>
      <point x="1251" y="231"/>
      <point x="1067" y="231" type="curve" smooth="yes"/>
      <point x="868" y="231"/>
      <point x="772" y="365"/>
      <point x="772" y="496" type="curve" smooth="yes"/>
      <point x="772" y="629"/>
      <point x="868" y="760"/>
      <point x="1065" y="760" type="curve" smooth="yes"/>
      <point x="1251" y="760"/>
      <point x="1348" y="627"/>
    </contour>
  </outline>
</glyph>
<glyph name="q" format="1">
  <advance width="2114"/>
  <unicode hex="0071"/>
  <outline>
    <contour>
      <point x="729" y="496" type="curve" smooth="yes"/>
      <point x="729" y="627"/>
      <point x="825" y="760"/>
      <point x="1012" y="760" type="curve" smooth="yes"/>
      <point x="1208" y="760"/>
      <point x="1305" y="629"/>
      <point x="1305" y="496" type="curve" smooth="yes"/>
      <point x="1305" y="365"/>
      <point x="1208" y="231"/>
      <point x="1010" y="231" type="curve" smooth="yes"/>
      <point x="825" y="231"/>
      <point x="729" y="362"/>
    </contour>
    <contour>
      <point x="94" y="512" type="curve" smooth="yes"/>
      <point x="94" y="123"/>
      <point x="463" y="-41"/>
      <point x="809" y="-41" type="curve" smooth="yes"/>
      <point x="1004" y="-41"/>
      <point x="1194" y="0"/>
      <point x="1305" y="84" type="curve"/>
      <point x="1305" y="-299" type="line"/>
      <point x="1911" y="-299" type="line"/>
      <point x="1911" y="997" type="line"/>
      <point x="1647" y="997" type="line"/>
      <point x="1495" y="780" type="line"/>
      <point x="1372" y="961"/>
      <point x="1112" y="1053"/>
      <point x="852" y="1053" type="curve" smooth="yes"/>
      <point x="471" y="1053"/>
      <point x="94" y="879"/>
    </contour>
  </outline>
</glyph>
<glyph name="r" format="1">
  <advance width="1577"/>
  <unicode hex="0072"/>
  <outline>
    <contour>
      <point x="154" y="1006" type="line"/>
      <point x="154" y="0" type="line"/>
      <point x="760" y="0" type="line"/>
      <point x="760" y="199" type="line"/>
      <point x="764" y="561"/>
      <point x="791" y="719"/>
      <point x="981" y="719" type="curve" smooth="yes"/>
      <point x="1071" y="719"/>
      <point x="1102" y="641"/>
      <point x="1102" y="563" type="curve" smooth="yes"/>
      <point x="1102" y="512"/>
      <point x="1090" y="459"/>
      <point x="1073" y="426" type="curve"/>
      <point x="1450" y="444" type="line"/>
      <point x="1489" y="518"/>
      <point x="1518" y="612"/>
      <point x="1518" y="705" type="curve" smooth="yes"/>
      <point x="1518" y="936"/>
      <point x="1321" y="1053"/>
      <point x="1118" y="1053" type="curve" smooth="yes"/>
      <point x="956" y="1053"/>
      <point x="715" y="975"/>
      <point x="569" y="780" type="curve"/>
      <point x="418" y="1006" type="line"/>
    </contour>
  </outline>
</glyph>
<glyph name="s" format="1">
  <advance width="1868"/>
  <unicode hex="0073"/>
  <outline>
    <contour>
      <point x="123" y="90" type="line"/>
      <point x="315" y="-12"/>
      <point x="682" y="-41"/>
      <point x="913" y="-41" type="curve" smooth="yes"/>
      <point x="1032" y="-41"/>
      <point x="1135" y="-37"/>
      <point x="1227" y="-27" type="curve" smooth="yes"/>
      <point x="1591" y="10"/>
      <point x="1749" y="123"/>
      <point x="1749" y="307" type="curve" smooth="yes"/>
      <point x="1749" y="836"/>
      <point x="709" y="586"/>
      <point x="709" y="719" type="curve" smooth="yes"/>
      <point x="709" y="750"/>
      <point x="745" y="780"/>
      <point x="940" y="780" type="curve" smooth="yes"/>
      <point x="1227" y="780"/>
      <point x="1356" y="748"/>
      <point x="1528" y="682" type="curve"/>
      <point x="1659" y="932" type="line"/>
      <point x="1411" y="1051"/>
      <point x="1163" y="1053"/>
      <point x="895" y="1053" type="curve" smooth="yes"/>
      <point x="645" y="1053"/>
      <point x="143" y="1018"/>
      <point x="143" y="698" type="curve" smooth="yes"/>
      <point x="143" y="260"/>
      <point x="1159" y="475"/>
      <point x="1159" y="299" type="curve" smooth="yes"/>
      <point x="1159" y="260"/>
      <point x="1106" y="242"/>
      <point x="999" y="242" type="curve" smooth="yes"/>
      <point x="723" y="242"/>
      <point x="498" y="268"/>
      <point x="248" y="352" type="curve"/>
    </contour>
  </outline>
</glyph>
<glyph name="t" format="1">
  <advance width="1597"/>
  <unicode hex="0074"/>
  <outline>
    <contour>
      <point x="315" y="788" type="line"/>
      <point x="315" y="500" type="line" smooth="yes"/>
      <point x="315" y="406"/>
      <point x="336" y="328"/>
      <point x="371" y="262" type="curve" smooth="yes"/>
      <point x="494" y="33"/>
      <point x="801" y="-41"/>
      <point x="1085" y="-41" type="curve" smooth="yes"/>
      <point x="1251" y="-41"/>
      <point x="1409" y="-16"/>
      <point x="1520" y="16" type="curve"/>
      <point x="1520" y="332" type="line"/>
      <point x="1450" y="309"/>
      <point x="1321" y="279"/>
      <point x="1202" y="279" type="curve" smooth="yes"/>
      <point x="1069" y="279"/>
      <point x="950" y="317"/>
      <point x="950" y="455" type="curve" smooth="yes"/>
      <point x="950" y="788" type="line"/>
      <point x="1434" y="788" type="line"/>
      <point x="1434" y="1006" type="line"/>
      <point x="950" y="1006" type="line"/>
      <point x="950" y="1475" type="line"/>
      <point x="315" y="1475" type="line"/>
      <point x="315" y="1006" type="line"/>
      <point x="76" y="1006" type="line"/>
      <point x="76" y="788" type="line"/>
    </contour>
  </outline>
</glyph>
<glyph name="u" format="1">
  <advance width="2107"/>
  <unicode hex="0075"/>
  <outline>
    <contour>
      <point x="1954" y="0" type="line"/>
      <point x="1954" y="1018" type="line"/>
      <point x="1348" y="1018" type="line"/>
      <point x="1348" y="516" type="line"/>
      <point x="1348" y="383"/>
      <point x="1251" y="252"/>
      <point x="1055" y="252" type="curve" smooth="yes"/>
      <point x="868" y="252"/>
      <point x="772" y="385"/>
      <point x="772" y="516" type="curve" smooth="yes"/>
      <point x="772" y="1018" type="line"/>
      <point x="137" y="1018" type="line"/>
      <point x="137" y="500" type="line"/>
      <point x="137" y="133"/>
      <point x="514" y="-41"/>
      <point x="895" y="-41" type="curve" smooth="yes"/>
      <point x="1155" y="-41"/>
      <point x="1415" y="51"/>
      <point x="1538" y="231" type="curve"/>
      <point x="1690" y="0" type="line"/>
    </contour>
  </outline>
</glyph>
<glyph name="v" format="1">
  <advance width="2003"/>
  <unicode hex="0076"/>
  <outline>
    <contour>
      <point x="86" y="1006" type="line"/>
      <point x="625" y="0" type="line"/>
      <point x="1360" y="0" type="line"/>
      <point x="1919" y="1006" type="line"/>
      <point x="1325" y="1006" type="line"/>
      <point x="1038" y="397" type="line"/>
      <point x="754" y="1006" type="line"/>
    </contour>
  </outline>
</glyph>
<glyph name="w" format="1">
  <advance width="2748"/>
  <unicode hex="0077"/>
  <outline>
    <contour>
      <point x="119" y="1006" type="line"/>
      <point x="494" y="0" type="line"/>
      <point x="1229" y="0" type="line"/>
      <point x="1362" y="463" type="line"/>
      <point x="1487" y="0" type="line"/>
      <point x="2222" y="0" type="line"/>
      <point x="2632" y="1006" type="line"/>
      <point x="2058" y="1006" type="line"/>
      <point x="1901" y="397" type="line"/>
      <point x="1718" y="1006" type="line"/>
      <point x="1092" y="1006" type="line"/>
      <point x="907" y="397" type="line"/>
      <point x="766" y="1006" type="line"/>
    </contour>
  </outline>
</glyph>
<glyph name="x" format="1">
  <advance width="2367"/>
  <unicode hex="0078"/>
  <outline>
    <contour>
      <point x="129" y="1006" type="line"/>
      <point x="788" y="471" type="line"/>
      <point x="156" y="0" type="line"/>
      <point x="872" y="0" type="line"/>
      <point x="1128" y="197" type="line"/>
      <point x="1356" y="0" type="line"/>
      <point x="2249" y="0" type="line"/>
      <point x="1546" y="573" type="line"/>
      <point x="2132" y="1006" type="line"/>
      <point x="1456" y="1006" type="line"/>
      <point x="1233" y="825" type="line"/>
      <point x="1022" y="1006" type="line"/>
    </contour>
  </outline>
</glyph>
<glyph name="y" format="1">
  <advance width="1907"/>
  <unicode hex="0079"/>
  <outline>
    <contour>
      <point x="123" y="1006" type="line"/>
      <point x="799" y="-135" type="line" smooth="yes"/>
      <point x="821" y="-174"/>
      <point x="831" y="-207"/>
      <point x="831" y="-238" type="curve" smooth="yes"/>
      <point x="831" y="-313"/>
      <point x="770" y="-362"/>
      <point x="713" y="-362" type="curve" smooth="yes"/>
      <point x="659" y="-362"/>
      <point x="608" y="-324"/>
      <point x="608" y="-227" type="curve" smooth="yes"/>
      <point x="608" y="-184"/>
      <point x="623" y="-139"/>
      <point x="637" y="-111" type="curve"/>
      <point x="260" y="-129" type="line"/>
      <point x="215" y="-217"/>
      <point x="195" y="-297"/>
      <point x="195" y="-367" type="curve" smooth="yes"/>
      <point x="195" y="-592"/>
      <point x="403" y="-719"/>
      <point x="692" y="-719" type="curve" smooth="yes"/>
      <point x="1008" y="-719"/>
      <point x="1153" y="-541"/>
      <point x="1272" y="-279" type="curve" smooth="yes"/>
      <point x="1853" y="1006" type="line"/>
      <point x="1321" y="1006" type="line"/>
      <point x="1098" y="387" type="line"/>
      <point x="791" y="1006" type="line"/>
    </contour>
  </outline>
</glyph>
<glyph name="z" format="1">
  <advance width="1714"/>
  <unicode hex="007A"/>
  <outline>
    <contour>
      <point x="1524" y="1006" type="line"/>
      <point x="1524" y="731" type="line"/>
      <point x="635" y="0" type="line"/>
      <point x="158" y="0" type="line"/>
      <point x="158" y="274" type="line"/>
      <point x="1071" y="1006" type="line"/>
    </contour>
    <contour>
      <point x="207" y="274" type="line"/>
      <point x="1563" y="274" type="line"/>
      <point x="1563" y="0" type="line"/>
      <point x="207" y="0" type="line"/>
    </contour>
    <contour>
      <point x="162" y="1006" type="line"/>
      <point x="1499" y="1006" type="line"/>
      <point x="1499" y="731" type="line"/>
      <point x="162" y="731" type="line"/>
    </contour>
  </outline>
</glyph>
<glyph name="braceleft" format="1">
  <advance width="1171"/>
  <unicode hex="007B"/>
  <outline>
    <contour>
      <point x="1012" y="-123" type="curve"/>
      <point x="1012" y="151" type="line"/>
      <point x="624" y="151"/>
      <point x="941" y="595"/>
      <point x="625" y="710" type="curve"/>
      <point x="941" y="825"/>
      <point x="624" y="1269"/>
      <point x="1012" y="1269" type="curve"/>
      <point x="1012" y="1543" type="line"/>
      <point x="907" y="1543"/>
      <point x="770" y="1543"/>
      <point x="665" y="1543" type="curve" smooth="yes"/>
      <point x="151" y="1543"/>
      <point x="462" y="847"/>
      <point x="54" y="847" type="curve"/>
      <point x="54" y="573" type="line"/>
      <point x="462" y="573"/>
      <point x="151" y="-123"/>
      <point x="665" y="-123" type="curve" smooth="yes"/>
      <point x="770" y="-123"/>
      <point x="907" y="-123"/>
    </contour>
  </outline>
</glyph>
<glyph name="braceright" format="1">
  <advance width="1172"/>
  <unicode hex="007D"/>
  <outline>
    <contour>
      <point x="160" y="-123" type="line"/>
      <point x="265" y="-123"/>
      <point x="402" y="-123"/>
      <point x="507" y="-123" type="curve" smooth="yes"/>
      <point x="1021" y="-123"/>
      <point x="710" y="573"/>
      <point x="1118" y="573" type="curve"/>
      <point x="1118" y="847" type="line"/>
      <point x="710" y="847"/>
      <point x="1021" y="1543"/>
      <point x="507" y="1543" type="curve" smooth="yes"/>
      <point x="402" y="1543"/>
      <point x="265" y="1543"/>
      <point x="160" y="1543" type="curve"/>
      <point x="160" y="1269" type="line"/>
      <point x="548" y="1269"/>
      <point x="231" y="825"/>
      <point x="547" y="710" type="curve"/>
      <point x="231" y="595"/>
      <point x="548" y="151"/>
      <point x="160" y="151" type="curve"/>
    </contour>
  </outline>
</glyph>
<glyph name="acute" format="1">
  <advance width="725"/>
  <unicode hex="00B4"/>
  <outline>
    <contour>
      <point x="252" y="1217" type="line"/>
      <point x="703" y="1450" type="line"/>
      <point x="343" y="1450" type="line"/>
      <point x="66" y="1217" type="line"/>
    </contour>
  </outline>
</glyph>
<glyph name="OE" format="1">
  <advance width="3690"/>
  <unicode hex="0152"/>
  <outline>
    <contour>
      <point x="3537" y="0" type="curve"/>
      <point x="3537" y="377" type="line"/>
      <point x="2449" y="377" type="line"/>
      <point x="2449" y="578" type="line"/>
      <point x="3270" y="578" type="line"/>
      <point x="3270" y="881" type="line"/>
      <point x="2449" y="881" type="line"/>
      <point x="2449" y="1055" type="line"/>
      <point x="3460" y="1055" type="line"/>
      <point x="3460" y="1438" type="line"/>
      <point x="1459" y="1438"/>
      <point x="1462" y="1438"/>
      <point x="1370" y="1438" type="curve" smooth="yes"/>
      <point x="839" y="1438"/>
      <point x="129" y="1291"/>
      <point x="129" y="721" type="curve" smooth="yes"/>
      <point x="129" y="70"/>
      <point x="919" y="-1"/>
      <point x="1453" y="-1" type="curve" smooth="yes"/>
      <point x="1527" y="-1"/>
      <point x="1459" y="0"/>
    </contour>
    <contour>
      <point x="1410" y="376" type="curve" smooth="yes"/>
      <point x="1150" y="376"/>
      <point x="987" y="454"/>
      <point x="987" y="721" type="curve" smooth="yes"/>
      <point x="987" y="988"/>
      <point x="1150" y="1065"/>
      <point x="1410" y="1065" type="curve" smooth="yes"/>
      <point x="1502" y="1065"/>
      <point x="1659" y="1065"/>
      <point x="1659" y="1065" type="curve"/>
      <point x="1659" y="376" type="line"/>
      <point x="1659" y="376"/>
      <point x="1502" y="376"/>
    </contour>
  </outline>
</glyph>
<glyph name="circumflex" format="1">
  <advance width="953"/>
  <unicode hex="02C6"/>
  <outline>
    <contour>
      <point x="268" y="1217" type="line"/>
      <point x="477" y="1335" type="line"/>
      <point x="685" y="1217" type="line"/>
      <point x="872" y="1217" type="line"/>
      <point x="595" y="1470" type="line"/>
      <point x="358" y="1470" type="line"/>
      <point x="81" y="1217" type="line"/>
    </contour>
  </outline>
</glyph>
<glyph name="fraction" format="1">
  <advance width="1409"/>
  <unicode hex="2044"/>
  <outline>
    <contour>
      <point x="958" y="1647" type="line"/>
      <point x="1364" y="1647" type="line"/>
      <point x="451" y="-207" type="line"/>
      <point x="45" y="-205" type="line"/>
    </contour>
  </outline>
</glyph>
<glyph name="a.alt" format="1">
  <advance width="2054"/>
  <outline>
    <contour>
      <point x="719" y="745" type="line"/>
      <point x="735" y="801"/>
      <point x="874" y="829"/>
      <point x="1016" y="829" type="curve" smooth="yes"/>
      <point x="1141" y="829"/>
      <point x="1270" y="801"/>
      <point x="1270" y="719" type="curve" smooth="yes"/>
      <point x="1270" y="526"/>
      <point x="117" y="684"/>
      <point x="117" y="254" type="curve" smooth="yes"/>
      <point x="117" y="57"/>
      <point x="420" y="-41"/>
      <point x="743" y="-41" type="curve" smooth="yes"/>
      <point x="1059" y="-41"/>
      <point x="1393" y="49"/>
      <point x="1497" y="231" type="curve"/>
      <point x="1649" y="0" type="line"/>
      <point x="1913" y="0" type="line"/>
      <point x="1913" y="631" type="line" smooth="yes"/>
      <point x="1913" y="989"/>
      <point x="1440" y="1053"/>
      <point x="1006" y="1053" type="curve" smooth="yes"/>
      <point x="438" y="1053"/>
      <point x="199" y="967"/>
      <point x="199" y="768" type="curve"/>
    </contour>
    <contour>
      <point x="772" y="262" type="curve" smooth="yes"/>
      <point x="772" y="428"/>
      <point x="1063" y="344"/>
      <point x="1270" y="508" type="curve"/>
      <point x="1270" y="463" type="line" smooth="yes"/>
      <point x="1270" y="285"/>
      <point x="1067" y="190"/>
      <point x="915" y="190" type="curve" smooth="yes"/>
      <point x="836" y="190"/>
      <point x="772" y="215"/>
    </contour>
  </outline>
</glyph>
